<?xml version="1.0" encoding="UTF-8"?>
<svg version="1.1" xmlns="http://www.w3.org/2000/svg" width="92" height="91">
<path d="M0 0 C30.36 0 60.72 0 92 0 C92 30.03 92 60.06 92 91 C61.64 91 31.28 91 0 91 C0 60.97 0 30.94 0 0 Z " fill="#B6C6AF" transform="translate(0,0)"/>
<path d="M0 0 C7.01423047 0.11313275 11.4547644 1.9958801 17.421875 5.625 C19.91312282 7.11314436 19.91312282 7.11314436 22.60546875 7.51953125 C27.68721842 8.53919717 31.51630839 13.06759237 34.5 17.125 C36 20 36 20 35.75 22.375 C35.5025 22.91125 35.255 23.4475 35 24 C34.01 24 33.02 24 32 24 C31.505 25.485 31.505 25.485 31 27 C29.66666667 28.33333333 28.33333333 29.66666667 27 31 C27 31.66 27 32.32 27 33 C27.928125 32.525625 28.85625 32.05125 29.8125 31.5625 C33 30 33 30 36 29 C35.505 28.01 35.505 28.01 35 27 C36.32 27 37.64 27 39 27 C40.24854249 30.92983867 40.29358419 34.91440672 40.375 39 C40.43107422 40.06734375 40.43107422 40.06734375 40.48828125 41.15625 C40.5234375 43.25 40.5234375 43.25 40 47 C37.703125 49.16015625 37.703125 49.16015625 35 51 C33.0428807 53.60233596 33.0428807 53.60233596 31.375 56.4375 C30.80523437 57.36433594 30.23546875 58.29117188 29.6484375 59.24609375 C28.56917655 61.04912448 27.50099308 62.85884357 26.4453125 64.67578125 C24.00170455 68.605367 21.424781 71.525073 17 73 C17 74.32 17 75.64 17 77 C13.56049626 82.09145177 5.58563508 82.78599152 0 84 C-6.07807263 84.67989222 -11.24716889 84.00098473 -17 82 C-16.625 79.0625 -16.625 79.0625 -16 76 C-15.01 75.505 -15.01 75.505 -14 75 C-15.2065625 74.443125 -15.2065625 74.443125 -16.4375 73.875 C-19 72 -19 72 -20 69.1875 C-20 65.37735245 -18.92960645 63.24173884 -17 60 C-18.65 59.67 -20.3 59.34 -22 59 C-22 57.68 -22 56.36 -22 55 C-20.60459859 54.82975495 -19.20865091 54.6639851 -17.8125 54.5 C-17.03519531 54.4071875 -16.25789063 54.314375 -15.45703125 54.21875 C-12.98008214 53.99822671 -10.48674635 54 -8 54 C-8 50.37 -8 46.74 -8 43 C-7.67 43 -7.34 43 -7 43 C-6.67 48.28 -6.34 53.56 -6 59 C-5.34 59 -4.68 59 -4 59 C-3.67 57.68 -3.34 56.36 -3 55 C-2.34 55 -1.68 55 -1 55 C-1.12375 53.14375 -1.12375 53.14375 -1.25 51.25 C-1.44294765 48.35578528 -1.14698753 47.22640822 0.453125 44.76171875 C4.21765922 42.15772346 7.53003109 42.45182186 12 42.5625 C12.80695312 42.55541016 13.61390625 42.54832031 14.4453125 42.54101562 C18.10214679 42.5802391 20.37411418 42.62694916 23.5625 44.52734375 C24.036875 45.01332031 24.51125 45.49929687 25 46 C26.15811388 44.94729537 26.15811388 44.94729537 27 43 C25.68 42.34 24.36 41.68 23 41 C23 39.35 23 37.7 23 36 C18.71 36 14.42 36 10 36 C10.75 29.375 10.75 29.375 13 26 C13.763125 26.165 14.52625 26.33 15.3125 26.5 C18.03596236 27.09145396 18.03596236 27.09145396 21 27 C19.56853622 26.58286485 18.12941114 26.1919503 16.6875 25.8125 C15.88699219 25.59207031 15.08648437 25.37164063 14.26171875 25.14453125 C11.91030636 24.73805495 11.91030636 24.73805495 10.20703125 26.44921875 C9.80871094 26.96097656 9.41039063 27.47273438 9 28 C8 27 8 27 7.90234375 24.05859375 C7.91394531 22.86363281 7.92554687 21.66867188 7.9375 20.4375 C7.94652344 19.23996094 7.95554687 18.04242187 7.96484375 16.80859375 C7.97644531 15.88175781 7.98804687 14.95492188 8 14 C7.195625 13.855625 6.39125 13.71125 5.5625 13.5625 C3 13 3 13 2 12 C1.95936168 10.33382885 1.957279 8.66611905 2 7 C1.34 7 0.68 7 0 7 C-0.38133299 5.0085944 -0.71325582 3.00720923 -1 1 C-0.67 0.67 -0.34 0.34 0 0 Z " fill="#077203" transform="translate(50,5)"/>
<path d="M0 0 C1.33111115 0.67109264 2.66352212 1.33965986 4 2 C3.67 2.99 3.34 3.98 3 5 C1.9171875 4.2884375 1.9171875 4.2884375 0.8125 3.5625 C-1.81898788 1.89938773 -1.81898788 1.89938773 -4.34765625 1.58984375 C-7.43974067 0.90220789 -9.54911432 -0.35735608 -12.25 -2 C-17.35225107 -4.89381404 -21.16964023 -5.80884066 -27 -6 C-27 -4.02 -27 -2.04 -27 0 C-26.34 0 -25.68 0 -25 0 C-24.938125 0.78375 -24.87625 1.5675 -24.8125 2.375 C-24.544375 3.24125 -24.27625 4.1075 -24 5 C-21.525 5.99 -21.525 5.99 -19 7 C-18.505 13.435 -18.505 13.435 -18 20 C-17.01 19.01 -16.02 18.02 -15 17 C-10.19002475 17.0885815 -5.49968264 18.65247748 -2 22 C-6.02992782 21.44687265 -10.02022924 20.8441938 -14 20 C-14.99 22.97 -15.98 25.94 -17 29 C-15.5975 28.814375 -14.195 28.62875 -12.75 28.4375 C-9.57938562 28.01785986 -7.00934204 27.78698327 -4 29 C-2.875 32 -2.875 32 -2 35 C-1.34 35.33 -0.68 35.66 0 36 C-0.33 37.32 -0.66 38.64 -1 40 C-4.875 38.125 -4.875 38.125 -6 37 C-7.4887186 36.91330568 -8.981445 36.89296506 -10.47265625 36.90234375 C-11.82133789 36.90717773 -11.82133789 36.90717773 -13.19726562 36.91210938 C-14.14279297 36.92048828 -15.08832031 36.92886719 -16.0625 36.9375 C-17.01189453 36.94201172 -17.96128906 36.94652344 -18.93945312 36.95117188 C-21.29303065 36.9629989 -23.64648477 36.97947975 -26 37 C-26.12117188 37.78246094 -26.24234375 38.56492188 -26.3671875 39.37109375 C-26.61855469 40.88896484 -26.61855469 40.88896484 -26.875 42.4375 C-27.11863281 43.95150391 -27.11863281 43.95150391 -27.3671875 45.49609375 C-27.57601562 46.32238281 -27.78484375 47.14867187 -28 48 C-28.99 48.495 -28.99 48.495 -30 49 C-30.33 49.99 -30.66 50.98 -31 52 C-31.66 52 -32.32 52 -33 52 C-34.60744075 46.78531031 -34.05870608 41.40095963 -34 36 C-39.61 36 -45.22 36 -51 36 C-51 33.69 -51 31.38 -51 29 C-50.01257813 28.95101562 -49.02515625 28.90203125 -48.0078125 28.8515625 C-46.72648437 28.77679688 -45.44515625 28.70203125 -44.125 28.625 C-42.21074219 28.52058594 -42.21074219 28.52058594 -40.2578125 28.4140625 C-36.91938301 28.32758894 -36.91938301 28.32758894 -35 26 C-34.37412575 20.62881301 -34.37412575 20.62881301 -36.5 16 C-37.2425 15.505 -37.2425 15.505 -38 15 C-41.08851102 15.78105168 -41.08851102 15.78105168 -43.0625 18.0625 C-43.701875 18.701875 -44.34125 19.34125 -45 20 C-45.66 20 -46.32 20 -47 20 C-47 20.66 -47 21.32 -47 22 C-45.02 21.67 -43.04 21.34 -41 21 C-41 20.34 -41 19.68 -41 19 C-40.34 19 -39.68 19 -39 19 C-38.67 18.34 -38.34 17.68 -38 17 C-38.125 19.3125 -38.125 19.3125 -39 22 C-42.66365093 24.36101949 -44.59781468 25 -49 25 C-48.67 25.99 -48.34 26.98 -48 28 C-49.32 27.34 -50.64 26.68 -52 26 C-52 25.34 -52 24.68 -52 24 C-54.31 24 -56.62 24 -59 24 C-59 24.66 -59 25.32 -59 26 C-57.02 26.33 -55.04 26.66 -53 27 C-53.33 27.99 -53.66 28.98 -54 30 C-55.485 30.495 -55.485 30.495 -57 31 C-57.99 30.34 -58.98 29.68 -60 29 C-60.1875 25.875 -60.1875 25.875 -60 23 C-58.35 23 -56.7 23 -55 23 C-55.66 21.02 -56.32 19.04 -57 17 C-58.98 18.32 -60.96 19.64 -63 21 C-62 19 -61 17 -60 15 C-60.66 14.01 -61.32 13.02 -62 12 C-64.69462575 14.51498404 -66.44708439 16.6723237 -68 20 C-68.66 20.66 -69.32 21.32 -70 22 C-70.16681109 25.08347826 -70.16681109 25.08347826 -70 28 C-69.01 27.505 -69.01 27.505 -68 27 C-67.64731066 28.6626783 -67.31966139 30.33065717 -67 32 C-66.773125 33.051875 -66.54625 34.10375 -66.3125 35.1875 C-65.91250873 40.06739353 -66.84952117 44.27447951 -68 49 C-68.66 49 -69.32 49 -70 49 C-68.8354799 50.66621425 -68.8354799 50.66621425 -67 52 C-64.34533951 51.76956136 -64.34533951 51.76956136 -62 51 C-62 49.68 -62 48.36 -62 47 C-61.34 47 -60.68 47 -60 47 C-60.20625 46.236875 -60.4125 45.47375 -60.625 44.6875 C-61 42 -61 42 -59 39 C-57.37419034 39.11398665 -55.74932843 39.24155659 -54.125 39.375 C-53.22007813 39.44460937 -52.31515625 39.51421875 -51.3828125 39.5859375 C-49 40 -49 40 -47 42 C-46.34 42.99 -45.68 43.98 -45 45 C-45.969375 45.12375 -46.93875 45.2475 -47.9375 45.375 C-48.948125 45.58125 -49.95875 45.7875 -51 46 C-51.33 46.66 -51.66 47.32 -52 48 C-52.66 48 -53.32 48 -54 48 C-54 49.32 -54 50.64 -54 52 C-54.99 52 -55.98 52 -57 52 C-56.195625 52.78375 -55.39125 53.5675 -54.5625 54.375 C-52 57 -52 57 -51 59 C-54.3 58.34 -57.6 57.68 -61 57 C-61 56.34 -61 55.68 -61 55 C-63.64 55.33 -66.28 55.66 -69 56 C-72 50.25 -72 50.25 -72 48 C-72.66 48 -73.32 48 -74 48 C-75.03194763 24.41761516 -75.03194763 24.41761516 -69 13 C-68.34 13 -67.68 13 -67 13 C-67.33 12.01 -67.66 11.02 -68 10 C-64.70205807 6.95886502 -61.3670928 3.96440014 -58 1 C-57.33226563 0.40832031 -56.66453125 -0.18335938 -55.9765625 -0.79296875 C-38.83505326 -14.86057865 -17.7327453 -9.45922075 0 0 Z " fill="#B9C0AE" transform="translate(77,12)"/>
<path d="M0 0 C30.36 0 60.72 0 92 0 C92 12.54 92 25.08 92 38 C91.67 38 91.34 38 91 38 C90.34 34.7 89.68 31.4 89 28 C87.515 27.505 87.515 27.505 86 27 C84.39453125 25.07421875 84.39453125 25.07421875 82.8125 22.6875 C82.28269531 21.90761719 81.75289063 21.12773437 81.20703125 20.32421875 C80 18 80 18 80 14 C79.443125 13.75765625 78.88625 13.5153125 78.3125 13.265625 C74.4704724 11.57824801 70.69870213 9.85857816 67 7.875 C56.60451 2.70777014 43.83000295 2.28207653 32.75 5.4375 C26.09939498 7.94716227 21.22353955 12.29797325 16 17 C14.77534402 17.96409087 13.54713591 18.92372315 12.3125 19.875 C11.549375 20.57625 10.78625 21.2775 10 22 C10 22.99 10 23.98 10 25 C9.34 25 8.68 25 8 25 C7.86682373 25.57645264 7.73364746 26.15290527 7.59643555 26.74682617 C7.01914775 28.92766491 6.26464965 30.94634014 5.45703125 33.05078125 C3.64029708 38.45233112 3.59127601 43.53337853 3.6875 49.1875 C3.68427734 50.14591797 3.68105469 51.10433594 3.67773438 52.09179688 C3.72999129 58.96595713 4.14983988 64.53208046 9.125 69.6875 C12 72.67942584 12 72.67942584 12 76 C12.99 76.33 13.98 76.66 15 77 C15 77.66 15 78.32 15 79 C16.051875 79.37125 16.051875 79.37125 17.125 79.75 C20 81 20 81 23.0625 83.0625 C25.74319798 85.09839747 25.74319798 85.09839747 28.25 85.4375 C29.11625 85.7159375 29.11625 85.7159375 30 86 C30.66 87.65 31.32 89.3 32 91 C21.44 91 10.88 91 0 91 C0 60.97 0 30.94 0 0 Z " fill="#CDD1C8" transform="translate(0,0)"/>
<path d="M0 0 C7.01423047 0.11313275 11.4547644 1.9958801 17.421875 5.625 C19.91312282 7.11314436 19.91312282 7.11314436 22.60546875 7.51953125 C27.68721842 8.53919717 31.51630839 13.06759237 34.5 17.125 C36 20 36 20 35.75 22.375 C35.5025 22.91125 35.255 23.4475 35 24 C34.01 24 33.02 24 32 24 C31.505 25.485 31.505 25.485 31 27 C29.66666667 28.33333333 28.33333333 29.66666667 27 31 C27 31.66 27 32.32 27 33 C24.03 32.01 21.06 31.02 18 30 C17.34 30.99 16.68 31.98 16 33 C16.66 33.66 17.32 34.32 18 35 C15.36 35.33 12.72 35.66 10 36 C10.75 29.375 10.75 29.375 13 26 C13.763125 26.165 14.52625 26.33 15.3125 26.5 C18.03596236 27.09145396 18.03596236 27.09145396 21 27 C19.56853622 26.58286485 18.12941114 26.1919503 16.6875 25.8125 C15.88699219 25.59207031 15.08648437 25.37164063 14.26171875 25.14453125 C11.91030636 24.73805495 11.91030636 24.73805495 10.20703125 26.44921875 C9.80871094 26.96097656 9.41039062 27.47273438 9 28 C8 27 8 27 7.90234375 24.05859375 C7.91394531 22.86363281 7.92554688 21.66867188 7.9375 20.4375 C7.95103516 18.64119141 7.95103516 18.64119141 7.96484375 16.80859375 C7.97644531 15.88175781 7.98804688 14.95492188 8 14 C7.195625 13.855625 6.39125 13.71125 5.5625 13.5625 C3 13 3 13 2 12 C1.95936168 10.33382885 1.957279 8.66611905 2 7 C1.34 7 0.68 7 0 7 C-0.38133299 5.0085944 -0.71325582 3.00720923 -1 1 C-0.67 0.67 -0.34 0.34 0 0 Z " fill="#057405" transform="translate(50,5)"/>
<path d="M0 0 C0.99 1.32 1.98 2.64 3 4 C2.34 5.32 1.68 6.64 1 8 C2.32 7.34 3.64 6.68 5 6 C5.66 7.98 6.32 9.96 7 12 C5.35 12 3.7 12 2 12 C2.33 13.98 2.66 15.96 3 18 C4.65 18.33 6.3 18.66 8 19 C8 18.34 8 17.68 8 17 C5.525 16.01 5.525 16.01 3 15 C3 14.34 3 13.68 3 13 C9.52307692 12.63076923 9.52307692 12.63076923 11.9375 14.5 C12.288125 14.995 12.63875 15.49 13 16 C13 15.34 13 14.68 13 14 C13.63808594 13.81824219 14.27617187 13.63648438 14.93359375 13.44921875 C15.75988281 13.19785156 16.58617188 12.94648437 17.4375 12.6875 C18.26121094 12.44386719 19.08492187 12.20023438 19.93359375 11.94921875 C20.61550781 11.63597656 21.29742187 11.32273437 22 11 C22.33 10.01 22.66 9.02 23 8 C22.34 8 21.68 8 21 8 C21 8.66 21 9.32 21 10 C19.02 10.33 17.04 10.66 15 11 C15 10.34 15 9.68 15 9 C15.78375 8.7525 16.5675 8.505 17.375 8.25 C20.32317108 6.84610901 20.9024777 5.99324263 22 3 C24.46800047 4.15173355 26.04783565 5.04783565 28 7 C28.56228196 14.08475272 28.56228196 14.08475272 26.9296875 16.7421875 C23.94872856 18.68524171 21.31650547 18.28394052 17.8125 18.1875 C15.90404297 18.14689453 15.90404297 18.14689453 13.95703125 18.10546875 C12.49330078 18.05326172 12.49330078 18.05326172 11 18 C11 20.31 11 22.62 11 25 C16.28 25 21.56 25 27 25 C27 28.63 27 32.26 27 36 C26.67 35.34 26.34 34.68 26 34 C23.69 34 21.38 34 19 34 C20.15173355 31.53199953 21.04783565 29.95216435 23 28 C23.66 28.66 24.32 29.32 25 30 C25.33 28.68 25.66 27.36 26 26 C24.700625 26.144375 23.40125 26.28875 22.0625 26.4375 C21.33160156 26.51871094 20.60070312 26.59992187 19.84765625 26.68359375 C17.98859771 26.81886614 17.98859771 26.81886614 17 28 C14.65012738 28.23527773 12.29443961 28.41386417 9.9375 28.5625 C8.64714844 28.64628906 7.35679688 28.73007812 6.02734375 28.81640625 C5.02832031 28.87699219 4.02929688 28.93757813 3 29 C3 29.99 3 30.98 3 32 C3 34 3 36 3 38 C2.67 37.34 2.34 36.68 2 36 C1.34 36 0.68 36 0 36 C0.33 37.65 0.66 39.3 1 41 C-1.8125 41.625 -1.8125 41.625 -5 42 C-5.99 41.34 -6.98 40.68 -8 40 C-8 39.34 -8 38.68 -8 38 C-7.34 38 -6.68 38 -6 38 C-5.77645276 35.62556577 -5.570837 33.25174905 -5.375 30.875 C-5.27832031 29.87726562 -5.27832031 29.87726562 -5.1796875 28.859375 C-4.83090902 24.41244943 -5.31752815 21.12269819 -7 17 C-7.66 17.33 -8.32 17.66 -9 18 C-9.37048917 11.45469126 -9.37048917 11.45469126 -7.625 9.3125 C-7.08875 8.879375 -6.5525 8.44625 -6 8 C-4.82425289 5.90010348 -4.82425289 5.90010348 -4 4 C-3.34 4 -2.68 4 -2 4 C-1.34 2.68 -0.68 1.36 0 0 Z " fill="#B4C0B2" transform="translate(15,23)"/>
<path d="M0 0 C3.3 0 6.6 0 10 0 C10.33 2.97 10.66 5.94 11 9 C15.46949778 10.83364012 19.10924166 11.16401306 23.8515625 10.97265625 C26.12024407 11.00153038 27.8787079 11.18376369 30 12 C31.125 15 31.125 15 32 18 C32.66 18.33 33.32 18.66 34 19 C33.67 20.32 33.34 21.64 33 23 C29.125 21.125 29.125 21.125 28 20 C26.5112814 19.91330568 25.018555 19.89296506 23.52734375 19.90234375 C22.17866211 19.90717773 22.17866211 19.90717773 20.80273438 19.91210938 C19.85720703 19.92048828 18.91167969 19.92886719 17.9375 19.9375 C16.5134082 19.94426758 16.5134082 19.94426758 15.06054688 19.95117188 C12.70696935 19.9629989 10.35351523 19.97947975 8 20 C7.87882812 20.78246094 7.75765625 21.56492187 7.6328125 22.37109375 C7.46523438 23.38300781 7.29765625 24.39492188 7.125 25.4375 C6.96257813 26.44683594 6.80015625 27.45617187 6.6328125 28.49609375 C6.42398438 29.32238281 6.21515625 30.14867188 6 31 C5.34 31.33 4.68 31.66 4 32 C3.67 32.99 3.34 33.98 3 35 C2.34 35 1.68 35 1 35 C-0.60744075 29.78531031 -0.05870608 24.40095963 0 19 C-5.61 19 -11.22 19 -17 19 C-17 16.69 -17 14.38 -17 12 C-16.01257813 11.95101562 -15.02515625 11.90203125 -14.0078125 11.8515625 C-12.72648437 11.77679688 -11.44515625 11.70203125 -10.125 11.625 C-8.21074219 11.52058594 -8.21074219 11.52058594 -6.2578125 11.4140625 C-2.91938301 11.32758894 -2.91938301 11.32758894 -1 9 C-0.53993654 6.79749008 -0.53993654 6.79749008 -0.375 4.375 C-0.189375 2.209375 -0.189375 2.209375 0 0 Z " fill="#CDB407" transform="translate(43,29)"/>
<path d="M0 0 C0.33 0 0.66 0 1 0 C1.33 5.28 1.66 10.56 2 16 C2.66 16 3.32 16 4 16 C4.33 14.68 4.66 13.36 5 12 C5.66 12 6.32 12 7 12 C6.938125 10.741875 6.87625 9.48375 6.8125 8.1875 C6.70703125 6.04296875 6.70703125 6.04296875 7 4 C8.51831055 2.37231445 8.51831055 2.37231445 10 1 C9.88143617 5.89314061 9.75716714 10.78609118 9.62768555 15.67895508 C9.58446216 17.34232681 9.54277854 19.00573932 9.50268555 20.66918945 C9.44467668 23.06474068 9.38107171 25.46008908 9.31640625 27.85546875 C9.29133751 28.96513252 9.29133751 28.96513252 9.26576233 30.09721375 C9.1592724 33.83645932 8.87812248 37.35938544 8 41 C1.90218999 41.22084624 -3.21642935 41.01167675 -9 39 C-8.625 36.0625 -8.625 36.0625 -8 33 C-7.01 32.505 -7.01 32.505 -6 32 C-6.804375 31.62875 -7.60875 31.2575 -8.4375 30.875 C-11 29 -11 29 -12 26.1875 C-12 22.37735245 -10.92960645 20.24173884 -9 17 C-10.65 16.67 -12.3 16.34 -14 16 C-14 14.68 -14 13.36 -14 12 C-12.60459859 11.82975495 -11.20865091 11.6639851 -9.8125 11.5 C-9.03519531 11.4071875 -8.25789063 11.314375 -7.45703125 11.21875 C-4.98008214 10.99822671 -2.48674635 11 0 11 C0 7.37 0 3.74 0 0 Z " fill="#B2AE0D" transform="translate(42,48)"/>
<path d="M0 0 C18.15 0 36.3 0 55 0 C55 12.54 55 25.08 55 38 C54.67 38 54.34 38 54 38 C53.01 33.05 53.01 33.05 52 28 C51.01 27.67 50.02 27.34 49 27 C47.39453125 25.07421875 47.39453125 25.07421875 45.8125 22.6875 C45.28269531 21.90761719 44.75289062 21.12773437 44.20703125 20.32421875 C43 18 43 18 43 14 C42.443125 13.75765625 41.88625 13.5153125 41.3125 13.265625 C37.4704724 11.57824801 33.69870213 9.85857816 30 7.875 C20.79802884 3.30102608 7.88120913 1.88878806 -2 5 C-1.34 3.35 -0.68 1.7 0 0 Z " fill="#C3C6C0" transform="translate(37,0)"/>
<path d="M0 0 C0.33 0 0.66 0 1 0 C1 12.87 1 25.74 1 39 C-10.55 39 -22.1 39 -34 39 C-33.67 38.01 -33.34 37.02 -33 36 C-30.93359375 35.26953125 -30.93359375 35.26953125 -28.4375 34.8125 C-27.61121094 34.65394531 -26.78492187 34.49539062 -25.93359375 34.33203125 C-25.29550781 34.22246094 -24.65742187 34.11289063 -24 34 C-23.92265625 33.40960938 -23.8453125 32.81921875 -23.765625 32.2109375 C-22.74483909 29.26315779 -21.27962885 28.4091422 -18.75 26.625 C-11.72512297 21.65100989 -8.01826033 15.64629315 -4.1875 8.125 C-3.78080078 7.34125 -3.37410156 6.5575 -2.95507812 5.75 C-1.96344987 3.83674078 -0.98078745 1.91883907 0 0 Z " fill="#C3C6C0" transform="translate(91,52)"/>
<path d="M0 0 C0.33 0 0.66 0 1 0 C1 1.65 1 3.3 1 5 C1.66 5 2.32 5 3 5 C3.37125 6.175625 3.7425 7.35125 4.125 8.5625 C5.62712884 12.65525683 7.7689894 15.35947576 10.79296875 18.45703125 C12 20 12 20 12 23 C12.99 23.33 13.98 23.66 15 24 C15 24.66 15 25.32 15 26 C15.70125 26.2475 16.4025 26.495 17.125 26.75 C20 28 20 28 23.0625 30.0625 C25.74319798 32.09839747 25.74319798 32.09839747 28.25 32.4375 C29.11625 32.7159375 29.11625 32.7159375 30 33 C30.66 34.65 31.32 36.3 32 38 C21.44 38 10.88 38 0 38 C0 25.46 0 12.92 0 0 Z " fill="#D0D2CB" transform="translate(0,53)"/>
<path d="M0 0 C2.46800047 1.15173355 4.04783565 2.04783565 6 4 C6.56228196 11.08475272 6.56228196 11.08475272 4.9296875 13.7421875 C1.94872856 15.68524171 -0.68349453 15.28394052 -4.1875 15.1875 C-5.45980469 15.16042969 -6.73210938 15.13335937 -8.04296875 15.10546875 C-9.50669922 15.05326172 -9.50669922 15.05326172 -11 15 C-11 17.31 -11 19.62 -11 22 C-5.72 22 -0.44 22 5 22 C5 25.63 5 29.26 5 33 C4.67 32.34 4.34 31.68 4 31 C1.69 31 -0.62 31 -3 31 C-1.84826645 28.53199953 -0.95216435 26.95216435 1 25 C1.66 25.66 2.32 26.32 3 27 C3.33 25.68 3.66 24.36 4 23 C2.700625 23.144375 1.40125 23.28875 0.0625 23.4375 C-0.66839844 23.51871094 -1.39929688 23.59992187 -2.15234375 23.68359375 C-4.01140229 23.81886614 -4.01140229 23.81886614 -5 25 C-7.24904725 25.10597605 -9.49940647 25.18463006 -11.75 25.25 C-17.6210836 25.41734683 -17.6210836 25.41734683 -22.25 28.5625 C-22.8275 29.366875 -23.405 30.17125 -24 31 C-24.66 31 -25.32 31 -26 31 C-26 29.68 -26 28.36 -26 27 C-25.34 27 -24.68 27 -24 27 C-23.67 26.01 -23.34 25.02 -23 24 C-22.34 23.67 -21.68 23.34 -21 23 C-20.67 22.01 -20.34 21.02 -20 20 C-18.2524104 18.96439135 -16.50080832 17.93334202 -14.7109375 16.97265625 C-12.15026874 15.5169336 -10.50544629 13.59734562 -8.625 11.375 C-6.52316914 9.59652773 -4.67026545 9.53405309 -2 9 C-0.20614008 7.5420814 -0.20614008 7.5420814 1 6 C0.34 5.67 -0.32 5.34 -1 5 C-1 5.66 -1 6.32 -1 7 C-2.98 7.33 -4.96 7.66 -7 8 C-7 7.34 -7 6.68 -7 6 C-6.21625 5.7525 -5.4325 5.505 -4.625 5.25 C-1.67682892 3.84610901 -1.0975223 2.99324263 0 0 Z " fill="#C9C8A5" transform="translate(37,26)"/>
<path d="M0 0 C3.94192208 15.27494807 2.61034074 25.27632131 -5.26953125 38.74609375 C-9.90633775 46.20474206 -15.16980255 51.08490127 -23 55 C-23.66 54.34 -24.32 53.68 -25 53 C-23.71520959 51.49410612 -22.42195918 49.99542625 -21.125 48.5 C-20.04605469 47.24703125 -20.04605469 47.24703125 -18.9453125 45.96875 C-17.98238281 44.99421875 -17.98238281 44.99421875 -17 44 C-16.34 44 -15.68 44 -15 44 C-14.7525 43.30519531 -14.505 42.61039063 -14.25 41.89453125 C-12.80988144 38.55975671 -11.00924962 35.71245485 -9 32.6875 C-8.29875 31.61886719 -7.5975 30.55023438 -6.875 29.44921875 C-6.25625 28.64097656 -5.6375 27.83273438 -5 27 C-4.34 27 -3.68 27 -3 27 C-2.67 26.01 -2.34 25.02 -2 24 C-1.34 24 -0.68 24 0 24 C-0.495 14.1 -0.495 14.1 -1 4 C-2.32 4.99 -3.64 5.98 -5 7 C-10.55555556 10 -10.55555556 10 -13 10 C-13.33 9.01 -13.66 8.02 -14 7 C-12.625 5.5 -12.625 5.5 -11 4 C-10.34 4 -9.68 4 -9 4 C-8.67 2.68 -8.34 1.36 -8 0 C-4.90645403 -0.99435406 -3.09720845 -0.87840996 0 0 Z " fill="#A5C0A8" transform="translate(90,28)"/>
<path d="M0 0 C0.1598655 9.37877608 -0.33566818 18.65190221 -1 28 C-6.75 28.125 -6.75 28.125 -9 27 C-8.625 24.0625 -8.625 24.0625 -8 21 C-7.34 20.67 -6.68 20.34 -6 20 C-6.804375 19.62875 -7.60875 19.2575 -8.4375 18.875 C-11 17 -11 17 -12 14.1875 C-12 10.37735245 -10.92960645 8.24173884 -9 5 C-10.65 4.67 -12.3 4.34 -14 4 C-14 2.68 -14 1.36 -14 0 C-9.20699867 -1.39151652 -4.84864218 -0.68662689 0 0 Z " fill="#067603" transform="translate(42,60)"/>
<path d="M0 0 C2.475 0.99 2.475 0.99 5 2 C4.85816304 3.75032844 4.71136571 5.50025534 4.5625 7.25 C4.48128906 8.22453125 4.40007813 9.1990625 4.31640625 10.203125 C4.04925416 12.56461753 3.64628032 14.71901065 3 17 C2.34 17 1.68 17 1 17 C2.1645201 18.66621425 2.1645201 18.66621425 4 20 C6.65466049 19.76956136 6.65466049 19.76956136 9 19 C9 17.68 9 16.36 9 15 C9.66 15 10.32 15 11 15 C10.79375 14.236875 10.5875 13.47375 10.375 12.6875 C10 10 10 10 12 7 C13.62580966 7.11398665 15.25067157 7.24155659 16.875 7.375 C17.77992187 7.44460937 18.68484375 7.51421875 19.6171875 7.5859375 C22 8 22 8 24 10 C24.99 11.485 24.99 11.485 26 13 C25.030625 13.12375 24.06125 13.2475 23.0625 13.375 C22.051875 13.58125 21.04125 13.7875 20 14 C19.67 14.66 19.34 15.32 19 16 C18.34 16 17.68 16 17 16 C17 17.32 17 18.64 17 20 C16.01 20 15.02 20 14 20 C14.804375 20.78375 15.60875 21.5675 16.4375 22.375 C19 25 19 25 20 27 C16.7 26.34 13.4 25.68 10 25 C10 24.34 10 23.68 10 23 C6.04 23.495 6.04 23.495 2 24 C-1.93132056 15.2773825 -2.99326351 9.1668695 0 0 Z " fill="#91B58E" transform="translate(6,44)"/>
<path d="M0 0 C3.3 0 6.6 0 10 0 C10.33 2.97 10.66 5.94 11 9 C15.46949778 10.83364012 19.10924166 11.16401306 23.8515625 10.97265625 C26.12024407 11.00153038 27.8787079 11.18376369 30 12 C31.125 15 31.125 15 32 18 C32.66 18.33 33.32 18.66 34 19 C33.67 20.32 33.34 21.64 33 23 C29.125 21.125 29.125 21.125 28 20 C26.58429877 19.91348389 25.164405 19.89295096 23.74609375 19.90234375 C22.46508789 19.90717773 22.46508789 19.90717773 21.15820312 19.91210938 C20.26037109 19.92048828 19.36253906 19.92886719 18.4375 19.9375 C17.08495117 19.94426758 17.08495117 19.94426758 15.70507812 19.95117188 C13.46998686 19.96299775 11.23502563 19.9794778 9 20 C9 19.34 9 18.68 9 18 C15.27 18 21.54 18 28 18 C28 16.35 28 14.7 28 13 C27.29746094 13.15984375 26.59492187 13.3196875 25.87109375 13.484375 C18.6018083 14.78987933 11.29737865 15.19825244 5 11 C5.66 10.01 6.32 9.02 7 8 C7.39013716 6.0103005 7.73202649 4.00980131 8 2 C6.02 2 4.04 2 2 2 C2.05220703 3.04800781 2.05220703 3.04800781 2.10546875 4.1171875 C2.13253906 5.02726562 2.15960938 5.93734375 2.1875 6.875 C2.23970703 8.23238281 2.23970703 8.23238281 2.29296875 9.6171875 C2.19628906 10.40351562 2.09960938 11.18984375 2 12 C-1.63195496 14.42130331 -3.38349348 14.21022785 -7.6875 14.125 C-8.86699219 14.10695313 -10.04648437 14.08890625 -11.26171875 14.0703125 C-12.16535156 14.04710937 -13.06898437 14.02390625 -14 14 C-14 15.32 -14 16.64 -14 18 C-9.71 18 -5.42 18 -1 18 C-1 18.33 -1 18.66 -1 19 C-6.28 19 -11.56 19 -17 19 C-17 16.69 -17 14.38 -17 12 C-16.01257813 11.95101562 -15.02515625 11.90203125 -14.0078125 11.8515625 C-12.72648437 11.77679688 -11.44515625 11.70203125 -10.125 11.625 C-8.21074219 11.52058594 -8.21074219 11.52058594 -6.2578125 11.4140625 C-2.91938301 11.32758894 -2.91938301 11.32758894 -1 9 C-0.53993654 6.79749008 -0.53993654 6.79749008 -0.375 4.375 C-0.189375 2.209375 -0.189375 2.209375 0 0 Z " fill="#C3B51E" transform="translate(43,29)"/>
<path d="M0 0 C2 3.75 2 3.75 2 6 C3.98 6.66 5.96 7.32 8 8 C7.67 8.66 7.34 9.32 7 10 C6.34 10 5.68 10 5 10 C4.67 11.98 4.34 13.96 4 16 C15.3010374 17.96539781 24.04790278 16.43459976 35 13 C36.32997694 12.65351734 37.66177804 12.31313075 39 12 C38.67 13.32 38.34 14.64 38 16 C35.03 16.33 32.06 16.66 29 17 C28.505 18.485 28.505 18.485 28 20 C19.75 20 11.5 20 3 20 C2.34 18.35 1.68 16.7 1 15 C-1.54775306 14.10613836 -1.54775306 14.10613836 -4 14 C-4 9.00184627 -1.8841859 4.57588005 0 0 Z " fill="#B5C8A7" transform="translate(29,71)"/>
<path d="M0 0 C2.05078125 0.03255208 4.1015625 0.06510417 6.15234375 0.09765625 C6.15234375 1.74765625 6.15234375 3.39765625 6.15234375 5.09765625 C5.16234375 4.43765625 4.17234375 3.77765625 3.15234375 3.09765625 C1.83234375 4.74765625 0.51234375 6.39765625 -0.84765625 8.09765625 C1.46234375 8.09765625 3.77234375 8.09765625 6.15234375 8.09765625 C6.15234375 8.75765625 6.15234375 9.41765625 6.15234375 10.09765625 C1.77660423 10.69097686 -2.42294069 11.23592861 -6.84765625 11.09765625 C-6.51765625 12.41765625 -6.18765625 13.73765625 -5.84765625 15.09765625 C-4.52765625 15.42765625 -3.20765625 15.75765625 -1.84765625 16.09765625 C-2.42110562 18.96490311 -2.70910775 19.95910775 -4.84765625 22.09765625 C-5.17765625 20.44765625 -5.50765625 18.79765625 -5.84765625 17.09765625 C-6.83765625 17.09765625 -7.82765625 17.09765625 -8.84765625 17.09765625 C-9.50765625 18.08765625 -10.16765625 19.07765625 -10.84765625 20.09765625 C-12.84765625 18.72265625 -12.84765625 18.72265625 -14.84765625 17.09765625 C-14.84765625 16.43765625 -14.84765625 15.77765625 -14.84765625 15.09765625 C-13.85765625 15.09765625 -12.86765625 15.09765625 -11.84765625 15.09765625 C-11.84765625 13.77765625 -11.84765625 12.45765625 -11.84765625 11.09765625 C-11.18765625 11.09765625 -10.52765625 11.09765625 -9.84765625 11.09765625 C-9.51765625 10.10765625 -9.18765625 9.11765625 -8.84765625 8.09765625 C-6.78515625 7.41015625 -6.78515625 7.41015625 -4.84765625 7.09765625 C-5.50765625 6.43765625 -6.16765625 5.77765625 -6.84765625 5.09765625 C-6.84765625 4.76765625 -6.84765625 4.43765625 -6.84765625 4.09765625 C-9.48765625 3.76765625 -12.12765625 3.43765625 -14.84765625 3.09765625 C-14.84765625 2.76765625 -14.84765625 2.43765625 -14.84765625 2.09765625 C-13.99300781 2.03707031 -13.13835938 1.97648437 -12.2578125 1.9140625 C-10.60072266 1.78837891 -10.60072266 1.78837891 -8.91015625 1.66015625 C-7.80800781 1.57894531 -6.70585937 1.49773438 -5.5703125 1.4140625 C-2.89185935 1.1027932 -2.4455846 0.12925923 0 0 Z " fill="#B9C8B0" transform="translate(34.84765625,48.90234375)"/>
<path d="M0 0 C0.66 0.33 1.32 0.66 2 1 C1.01 2.485 1.01 2.485 0 4 C0.99 4.33 1.98 4.66 3 5 C1.02 5.99 1.02 5.99 -1 7 C-1 6.34 -1 5.68 -1 5 C-1.66 5 -2.32 5 -3 5 C-2.67 6.98 -2.34 8.96 -2 11 C-2.99 11.33 -3.98 11.66 -5 12 C-7.45004605 14.05803868 -8.62039945 16.14882553 -10 19 C-10.66 19.66 -11.32 20.32 -12 21 C-12.16681109 24.08347826 -12.16681109 24.08347826 -12 27 C-11.34 26.67 -10.68 26.34 -10 26 C-9.67 28.31 -9.34 30.62 -9 33 C-10.32 32.34 -11.64 31.68 -13 31 C-13.16753237 33.29160354 -13.33400052 35.58328491 -13.5 37.875 C-13.5928125 39.15117188 -13.685625 40.42734375 -13.78125 41.7421875 C-13.89876804 43.49236684 -14 45.24587965 -14 47 C-14.66 47 -15.32 47 -16 47 C-17.03194763 23.41761516 -17.03194763 23.41761516 -11 12 C-10.34 12 -9.68 12 -9 12 C-9.33 11.01 -9.66 10.02 -10 9 C-6.7 6.03 -3.4 3.06 0 0 Z " fill="#A9BBA9" transform="translate(19,13)"/>
<path d="M0 0 C0.99 1.32 1.98 2.64 3 4 C2.34 5.32 1.68 6.64 1 8 C2.32 7.34 3.64 6.68 5 6 C5.66 7.98 6.32 9.96 7 12 C5.35 12 3.7 12 2 12 C2 15.3 2 18.6 2 22 C-0.4375 20.8125 -0.4375 20.8125 -3 19 C-3.8125 16.3125 -3.8125 16.3125 -4 14 C-4.9590625 14.99 -4.9590625 14.99 -5.9375 16 C-8 18 -8 18 -9 18 C-9.37048917 11.45469126 -9.37048917 11.45469126 -7.625 9.3125 C-7.08875 8.879375 -6.5525 8.44625 -6 8 C-4.82425289 5.90010348 -4.82425289 5.90010348 -4 4 C-3.34 4 -2.68 4 -2 4 C-1.34 2.68 -0.68 1.36 0 0 Z " fill="#C4CCBE" transform="translate(15,23)"/>
<path d="M0 0 C1.32 0 2.64 0 4 0 C5.27887477 3.95007287 5.22041893 7.95442874 5.25 12.0625 C5.270625 12.78244141 5.29125 13.50238281 5.3125 14.24414062 C5.35150694 19.49544931 5.35150694 19.49544931 3.609375 21.99609375 C2 23 2 23 0 23 C0.33 22.29875 0.66 21.5975 1 20.875 C2.09044562 17.73996884 2.15322643 15.29436818 2 12 C0.906875 12.350625 -0.18625 12.70125 -1.3125 13.0625 C-5 14 -5 14 -8 13 C-7.34 11.02 -6.68 9.04 -6 7 C-6.66 6.67 -7.32 6.34 -8 6 C-5.0173094 4.47551369 -2.181798 3.06059933 1 2 C0.67 1.34 0.34 0.68 0 0 Z " fill="#076F0D" transform="translate(85,32)"/>
<path d="M0 0 C2.4375 1.0625 2.4375 1.0625 4 2 C3.67 2.99 3.34 3.98 3 5 C3.33 5.99 3.66 6.98 4 8 C4.66 8.33 5.32 8.66 6 9 C4.35 10.32 2.7 11.64 1 13 C0.67 12.01 0.34 11.02 0 10 C-1.32 10 -2.64 10 -4 10 C-5 9 -6 8 -7 7 C-10.10007201 5.79950593 -10.10007201 5.79950593 -13 5 C-12 2 -12 2 -9.875 0.25 C-6.12570144 -1.38012981 -3.937301 -0.93063478 0 0 Z " fill="#C3C8BB" transform="translate(38,10)"/>
<path d="M0 0 C0.33 0.99 0.66 1.98 1 3 C1.99 2.67 2.98 2.34 4 2 C0.89878026 10.78678927 -4.78669223 16.27993123 -12 22 C-12.99 22.33 -13.98 22.66 -15 23 C-15.66 22.34 -16.32 21.68 -17 21 C-15.71520959 19.49410612 -14.42195918 17.99542625 -13.125 16.5 C-12.40570313 15.6646875 -11.68640625 14.829375 -10.9453125 13.96875 C-10.30335937 13.3190625 -9.66140625 12.669375 -9 12 C-8.34 12 -7.68 12 -7 12 C-6.6596875 10.9790625 -6.6596875 10.9790625 -6.3125 9.9375 C-4.64427643 6.20385676 -2.44270392 3.27836579 0 0 Z " fill="#73B27C" transform="translate(82,60)"/>
<path d="M0 0 C0.33 0.99 0.66 1.98 1 3 C1.66 3 2.32 3 3 3 C3 4.32 3 5.64 3 7 C2.01 7.495 2.01 7.495 1 8 C0.87625 8.9590625 0.87625 8.9590625 0.75 9.9375 C0.5025 10.618125 0.255 11.29875 0 12 C-3.0625 13.25 -3.0625 13.25 -6 14 C-5.67 15.98 -5.34 17.96 -5 20 C-8.14668286 20 -9.31458176 19.47264871 -12 18 C-12.66 17.67 -13.32 17.34 -14 17 C-14 15.68 -14 14.36 -14 13 C-13.34 13 -12.68 13 -12 13 C-11.67 12.01 -11.34 11.02 -11 10 C-10.01 11.485 -10.01 11.485 -9 13 C-6.49701566 10.06171403 -5.53069061 7.82097239 -5 4 C-4.0409375 3.8453125 -4.0409375 3.8453125 -3.0625 3.6875 C-2.381875 3.460625 -1.70125 3.23375 -1 3 C-0.67 2.01 -0.34 1.02 0 0 Z " fill="#B0B3A4" transform="translate(49,9)"/>
<path d="M0 0 C0.33 0 0.66 0 1 0 C1 7.59 1 15.18 1 23 C-0.98 23 -2.96 23 -5 23 C-5.02693575 20.87506859 -5.04636628 18.75004088 -5.0625 16.625 C-5.07410156 15.44164063 -5.08570313 14.25828125 -5.09765625 13.0390625 C-5 10 -5 10 -4 8 C-3.01 8 -2.02 8 -1 8 C-1.20625 7.236875 -1.4125 6.47375 -1.625 5.6875 C-2 3 -2 3 0 0 Z " fill="#C6AE06" transform="translate(48,64)"/>
<path d="M0 0 C2.475 0.99 2.475 0.99 5 2 C5 5.3 5 8.6 5 12 C4.01 12 3.02 12 2 12 C1.67 11.34 1.34 10.68 1 10 C-0.11375 10.350625 -1.2275 10.70125 -2.375 11.0625 C-6 12 -6 12 -8 11 C-7.125 6.125 -7.125 6.125 -6 5 C-4.33382885 4.95936168 -2.66611905 4.957279 -1 5 C-0.67 3.35 -0.34 1.7 0 0 Z " fill="#BEC8B7" transform="translate(50,16)"/>
<path d="M0 0 C0.66 0 1.32 0 2 0 C1.51428134 4.37146792 0.16325079 6.0408299 -3 9 C-3 9.66 -3 10.32 -3 11 C-5.97 10.01 -8.94 9.02 -12 8 C-12.99 9.485 -12.99 9.485 -14 11 C-13.34 11.66 -12.68 12.32 -12 13 C-14.64 13.33 -17.28 13.66 -20 14 C-19.25 7.375 -19.25 7.375 -17 4 C-15.9790625 4.2165625 -15.9790625 4.2165625 -14.9375 4.4375 C-9.00928494 5.59570509 -9.00928494 5.59570509 -3 6 C-2.690625 5.38125 -2.38125 4.7625 -2.0625 4.125 C-1.375 2.75 -0.6875 1.375 0 0 Z " fill="#0A720D" transform="translate(80,27)"/>
<path d="M0 0 C2 3.75 2 3.75 2 6 C3.98 6.66 5.96 7.32 8 8 C7.67 8.66 7.34 9.32 7 10 C6.34 10 5.68 10 5 10 C4.67 11.98 4.34 13.96 4 16 C0.625 15.6875 0.625 15.6875 -3 15 C-3.66 14.01 -4.32 13.02 -5 12 C-4.525625 11.29875 -4.05125 10.5975 -3.5625 9.875 C-1.91030147 6.83495471 -1.46354913 4.3993603 -1 1 C-0.67 0.67 -0.34 0.34 0 0 Z " fill="#98BA8B" transform="translate(29,71)"/>
<path d="M0 0 C2.475 0.99 2.475 0.99 5 2 C4.88529863 3.75070517 4.75780972 5.50057536 4.625 7.25 C4.55539063 8.22453125 4.48578125 9.1990625 4.4140625 10.203125 C4.01534751 12.89633189 3.36492937 14.66963279 2 17 C1.01 17 0.02 17 -1 17 C-3.00366625 10.98900126 -1.90288558 5.82758708 0 0 Z " fill="#0B7D14" transform="translate(6,44)"/>
<path d="M0 0 C10.06994263 0.64967372 18.14710307 4.39958631 27 9 C28.33239701 9.66853604 29.66549296 10.33568592 31 11 C30.67 11.99 30.34 12.98 30 14 C29.278125 13.525625 28.55625 13.05125 27.8125 12.5625 C25.18101212 10.89938773 25.18101212 10.89938773 22.65234375 10.58984375 C19.56025933 9.90220789 17.45088568 8.64264392 14.75 7 C9.64774893 4.10618596 5.83035977 3.19115934 0 3 C0 2.01 0 1.02 0 0 Z " fill="#98BA9A" transform="translate(50,3)"/>
<path d="M0 0 C0.33 0 0.66 0 1 0 C1 12.87 1 25.74 1 39 C3.31 39 5.62 39 8 39 C8 39.66 8 40.32 8 41 C4.7 41 1.4 41 -2 41 C-1.34 31.43 -0.68 21.86 0 12 C-1.32 11.67 -2.64 11.34 -4 11 C-2.68 11 -1.36 11 0 11 C0 7.37 0 3.74 0 0 Z " fill="#95A422" transform="translate(42,48)"/>
<path d="M0 0 C1.79240663 0.11389875 3.58394835 0.24147687 5.375 0.375 C6.87160156 0.47941406 6.87160156 0.47941406 8.3984375 0.5859375 C11 1 11 1 13 3 C13.99 4.485 13.99 4.485 15 6 C14.030625 6.12375 13.06125 6.2475 12.0625 6.375 C10.5465625 6.684375 10.5465625 6.684375 9 7 C8.67 7.66 8.34 8.32 8 9 C7.34 9 6.68 9 6 9 C5.67 10.32 5.34 11.64 5 13 C5 10.36 5 7.72 5 5 C3.02 5.99 3.02 5.99 1 7 C-0.0625 5.1875 -0.0625 5.1875 -1 3 C-0.67 2.01 -0.34 1.02 0 0 Z " fill="#90BC90" transform="translate(17,51)"/>
<path d="M0 0 C0.33 0 0.66 0 1 0 C0.67 3.3 0.34 6.6 0 10 C0.969375 9.67 1.93875 9.34 2.9375 9 C6 8 6 8 7 8 C7 9.98 7 11.96 7 14 C6.67 13.34 6.34 12.68 6 12 C5.34 12 4.68 12 4 12 C4.33 13.65 4.66 15.3 5 17 C2.1875 17.625 2.1875 17.625 -1 18 C-1.99 17.34 -2.98 16.68 -4 16 C-4 15.34 -4 14.68 -4 14 C-3.34 14 -2.68 14 -2 14 C-1.93941406 13.32453125 -1.87882813 12.6490625 -1.81640625 11.953125 C-1.73261719 11.06109375 -1.64882812 10.1690625 -1.5625 9.25 C-1.48128906 8.36828125 -1.40007813 7.4865625 -1.31640625 6.578125 C-1.03761535 4.30649548 -0.61209423 2.20148177 0 0 Z " fill="#9FC2A4" transform="translate(11,47)"/>
<path d="M0 0 C0 1.65 0 3.3 0 5 C-5.94 5 -11.88 5 -18 5 C-17.67 3.68 -17.34 2.36 -17 1 C-15.10440036 0.83069605 -13.20850769 0.66467136 -11.3125 0.5 C-10.25675781 0.4071875 -9.20101562 0.314375 -8.11328125 0.21875 C-5.39363975 0.0276585 -2.72460144 -0.04043935 0 0 Z " fill="#C2AD08" transform="translate(71,42)"/>
<path d="M0 0 C1.84373465 1.06553496 3.67479236 2.15303177 5.5 3.25 C6.5209375 3.85328125 7.541875 4.4565625 8.59375 5.078125 C9.3878125 5.71234375 10.181875 6.3465625 11 7 C11 8.32 11 9.64 11 11 C9.35 11.33 7.7 11.66 6 12 C5.236875 11.071875 4.47375 10.14375 3.6875 9.1875 C1.88151448 7.01723899 0.0523371 4.94431935 -2 3 C-1.34 3 -0.68 3 0 3 C0 2.01 0 1.02 0 0 Z " fill="#C5CCBF" transform="translate(14,67)"/>
<path d="M0 0 C0.51949219 0.28875 1.03898437 0.5775 1.57421875 0.875 C5.83125757 3.30996357 5.83125757 3.30996357 10.5625 3.8125 C14.30734652 4.10056512 15.94174687 6.44755775 18.4140625 9.125 C20.2833332 11.33497521 21.84659216 13.33274437 23 16 C22.6875 18.3125 22.6875 18.3125 22 20 C21.54625 19.030625 21.0925 18.06125 20.625 17.0625 C19.34213779 13.92920418 19.34213779 13.92920418 17 13 C17 12.34 17 11.68 17 11 C15.68 10.67 14.36 10.34 13 10 C13 9.01 13 8.02 13 7 C12.39671875 6.97421875 11.7934375 6.9484375 11.171875 6.921875 C4.60266422 6.45567294 4.60266422 6.45567294 1.4375 4.0625 C0 2 0 2 0 0 Z " fill="#176D21" transform="translate(63,9)"/>
<path d="M0 0 C3.96 0 7.92 0 12 0 C9 6 9 6 6.125 7.1875 C3 8 3 8 0 7 C0 4.69 0 2.38 0 0 Z " fill="#C6C8C0" transform="translate(0,0)"/>
<path d="M0 0 C3.3 0 6.6 0 10 0 C10.33 2.97 10.66 5.94 11 9 C12.65 9.66 14.3 10.32 16 11 C16 11.33 16 11.66 16 12 C13.69 12 11.38 12 9 12 C9 8.37 9 4.74 9 1 C6.36 1 3.72 1 1 1 C1.05220703 1.92232422 1.05220703 1.92232422 1.10546875 2.86328125 C1.13253906 3.67152344 1.15960938 4.47976562 1.1875 5.3125 C1.23970703 6.51326172 1.23970703 6.51326172 1.29296875 7.73828125 C1 10 1 10 -0.0625 11.78125 C-3.05679497 13.66475812 -5.70102754 13.28345796 -9.1875 13.1875 C-10.45980469 13.16042969 -11.73210938 13.13335937 -13.04296875 13.10546875 C-14.50669922 13.05326172 -14.50669922 13.05326172 -16 13 C-15.67 14.98 -15.34 16.96 -15 19 C-15.66 19 -16.32 19 -17 19 C-17 16.69 -17 14.38 -17 12 C-16.01257813 11.95101562 -15.02515625 11.90203125 -14.0078125 11.8515625 C-12.72648437 11.77679688 -11.44515625 11.70203125 -10.125 11.625 C-8.21074219 11.52058594 -8.21074219 11.52058594 -6.2578125 11.4140625 C-2.91938301 11.32758894 -2.91938301 11.32758894 -1 9 C-0.53993654 6.79749008 -0.53993654 6.79749008 -0.375 4.375 C-0.189375 2.209375 -0.189375 2.209375 0 0 Z " fill="#C4B941" transform="translate(43,29)"/>
<path d="M0 0 C0.99 0 1.98 0 3 0 C3.33 4.29 3.66 8.58 4 13 C4.99 12.01 5.98 11.02 7 10 C11.80997525 10.0885815 16.50031736 11.65247748 20 15 C15.97007218 14.44687265 11.97977076 13.8441938 8 13 C7.34 14.65 6.68 16.3 6 18 C3.62090353 16.35293322 2.46227481 15.45003661 1 13 C0.25604826 8.67250609 0.07063633 4.3858739 0 0 Z " fill="#9BBE87" transform="translate(55,19)"/>
<path d="M0 0 C1.10690848 3.84590099 0.89259934 5.37937518 -1 9 C-6.03421542 16.7949142 -6.03421542 16.7949142 -11 18 C-11.33 18.99 -11.66 19.98 -12 21 C-13.875 22.25 -13.875 22.25 -16 23 C-16.99 22.67 -17.98 22.34 -19 22 C-18.40832031 21.56429687 -17.81664063 21.12859375 -17.20703125 20.6796875 C-9.38082396 14.78130615 -4.51500017 8.64574501 0 0 Z " fill="#AEC5B2" transform="translate(87,60)"/>
<path d="M0 0 C-0.33 1.65 -0.66 3.3 -1 5 C-1.33 4.34 -1.66 3.68 -2 3 C-2.78375 3.495 -3.5675 3.99 -4.375 4.5 C-7 6 -7 6 -9 6 C-9 5.01 -9 4.02 -9 3 C-11.97065509 3.34227572 -11.97065509 3.34227572 -15 4 C-15.33 4.66 -15.66 5.32 -16 6 C-17.32 5.67 -18.64 5.34 -20 5 C-14.947844 -1.17485733 -7.23994135 -0.23188424 0 0 Z " fill="#AABBA4" transform="translate(50,3)"/>
<path d="M0 0 C2 2 2 2 2.125 4.375 C0.57191952 7.99885444 -1.60893091 8.70246737 -5.08984375 10.30078125 C-7 11 -7 11 -9 11 C-9.33 10.01 -9.66 9.02 -10 8 C-8.625 6.5 -8.625 6.5 -7 5 C-6.34 5 -5.68 5 -5 5 C-4.67 3.68 -4.34 2.36 -4 1 C-2.125 0.375 -2.125 0.375 0 0 Z " fill="#83B587" transform="translate(86,27)"/>
<path d="M0 0 C2.64 0.33 5.28 0.66 8 1 C8.28875 1.969375 8.5775 2.93875 8.875 3.9375 C9.64214682 7.10664203 9.64214682 7.10664203 12 8 C11.67 9.32 11.34 10.64 11 12 C7.125 10.125 7.125 10.125 6 9 C4.58429877 8.91348389 3.164405 8.89295096 1.74609375 8.90234375 C0.46508789 8.90717773 0.46508789 8.90717773 -0.84179688 8.91210938 C-2.18854492 8.92467773 -2.18854492 8.92467773 -3.5625 8.9375 C-4.46419922 8.94201172 -5.36589844 8.94652344 -6.29492188 8.95117188 C-8.53001314 8.96299775 -10.76497437 8.9794778 -13 9 C-13 8.34 -13 7.68 -13 7 C-6.73 7 -0.46 7 6 7 C6 5.35 6 3.7 6 2 C4.35 2 2.7 2 1 2 C0.67 1.34 0.34 0.68 0 0 Z " fill="#95AC1B" transform="translate(65,40)"/>
<path d="M0 0 C0.28617188 0.64453125 0.57234375 1.2890625 0.8671875 1.953125 C1.81418662 4.19884128 1.81418662 4.19884128 4.125 4.75 C4.74375 4.8325 5.3625 4.915 6 5 C6 5.33 6 5.66 6 6 C8.31 6.33 10.62 6.66 13 7 C13.33 7.99 13.66 8.98 14 10 C14.99 10.33 15.98 10.66 17 11 C15 12 15 12 12.90625 11.44140625 C12.1121875 11.15136719 11.318125 10.86132812 10.5 10.5625 C7.32401533 9.36383942 7.32401533 9.36383942 4 9 C2.37485532 10.45833358 2.37485532 10.45833358 1 12 C0 11 0 11 -0.09765625 8.49609375 C-0.08605469 7.48675781 -0.07445312 6.47742188 -0.0625 5.4375 C-0.05347656 4.42558594 -0.04445312 3.41367187 -0.03515625 2.37109375 C-0.02355469 1.58863281 -0.01195312 0.80617188 0 0 Z " fill="#15740F" transform="translate(58,21)"/>
<path d="M0 0 C0.33 0.99 0.66 1.98 1 3 C1.99 2.67 2.98 2.34 4 2 C0.98862341 10.53223368 -4.20848521 15.28235721 -11 21 C-11.66 20.67 -12.32 20.34 -13 20 C-12.14535156 19.16855469 -11.29070312 18.33710937 -10.41015625 17.48046875 C-9.29400823 16.38307952 -8.17813718 15.28540855 -7.0625 14.1875 C-6.49853516 13.64029297 -5.93457031 13.09308594 -5.35351562 12.52929688 C-1.98970438 9.22039606 -1.98970438 9.22039606 0 5 C-0.66 4.01 -1.32 3.02 -2 2 C-1.34 1.34 -0.68 0.68 0 0 Z " fill="#33773E" transform="translate(82,60)"/>
<path d="M0 0 C5.28 0 10.56 0 16 0 C16 3.63 16 7.26 16 11 C15.67 10.34 15.34 9.68 15 9 C12.69 9 10.38 9 8 9 C9.15173355 6.53199953 10.04783565 4.95216435 12 3 C12.66 3.66 13.32 4.32 14 5 C14.33 3.68 14.66 2.36 15 1 C10.05 1 5.1 1 0 1 C0 0.67 0 0.34 0 0 Z " fill="#CAC79A" transform="translate(26,48)"/>
<path d="M0 0 C1.32 0 2.64 0 4 0 C5.27887477 3.95007287 5.22041893 7.95442874 5.25 12.0625 C5.270625 12.78244141 5.29125 13.50238281 5.3125 14.24414062 C5.35150694 19.49544931 5.35150694 19.49544931 3.609375 21.99609375 C2 23 2 23 0 23 C0.48726563 21.98099609 0.48726563 21.98099609 0.984375 20.94140625 C2.18594017 17.46148865 2.26572663 14.61360014 2.25 10.9375 C2.25773437 9.12572266 2.25773437 9.12572266 2.265625 7.27734375 C2.01877749 4.2316811 1.60255975 2.550105 0 0 Z " fill="#398043" transform="translate(85,32)"/>
<path d="M0 0 C1.98 0.66 3.96 1.32 6 2 C3.3006312 5.71163209 -0.7000414 6.29847125 -5 7 C-6.32 7 -7.64 7 -9 7 C-8.67 5.68 -8.34 4.36 -8 3 C-6.865625 2.690625 -5.73125 2.38125 -4.5625 2.0625 C-1.21224901 1.37075469 -1.21224901 1.37075469 0 0 Z " fill="#056F05" transform="translate(61,80)"/>
<path d="M0 0 C0.33 0 0.66 0 1 0 C1.1598655 9.37877608 0.66433182 18.65190221 0 28 C-5.75 28.125 -5.75 28.125 -8 27 C-7.67 25.02 -7.34 23.04 -7 21 C-6.01 20.67 -5.02 20.34 -4 20 C-4 20.99 -4 21.98 -4 23 C-4.66 23 -5.32 23 -6 23 C-5.67 24.32 -5.34 25.64 -5 27 C-3.68 27 -2.36 27 -1 27 C-1.01160156 25.97261719 -1.02320313 24.94523437 -1.03515625 23.88671875 C-1.09724473 15.86178243 -0.94716781 7.98327158 0 0 Z " fill="#236D00" transform="translate(41,60)"/>
<path d="M0 0 C-0.75 1.9375 -0.75 1.9375 -2 4 C-3.32594105 4.36162029 -4.65938457 4.69728039 -6 5 C-6.33 5.99 -6.66 6.98 -7 8 C-10 10 -10 10 -13 10 C-11.22752395 3.79633382 -6.79010578 -0.99854497 0 0 Z " fill="#B3BCAC" transform="translate(32,7)"/>
<path d="M0 0 C0.33 0.99 0.66 1.98 1 3 C1.66 3 2.32 3 3 3 C3 4.32 3 5.64 3 7 C2.01 7.495 2.01 7.495 1 8 C0.67 8.99 0.34 9.98 0 11 C-0.99 11 -1.98 11 -3 11 C-5 8 -5 8 -4.625 5.3125 C-4.41875 4.549375 -4.2125 3.78625 -4 3 C-3.01 3 -2.02 3 -1 3 C-0.67 2.01 -0.34 1.02 0 0 Z " fill="#8BB687" transform="translate(49,9)"/>
<path d="M0 0 C1.79133978 -0.05391993 3.58313899 -0.09275571 5.375 -0.125 C6.37273438 -0.14820313 7.37046875 -0.17140625 8.3984375 -0.1953125 C11 0 11 0 13 2 C12.34 2 11.68 2 11 2 C11.33 2.99 11.66 3.98 12 5 C10.68 4.34 9.36 3.68 8 3 C8 2.34 8 1.68 8 1 C5.69 1 3.38 1 1 1 C1 1.66 1 2.32 1 3 C3.97 3.495 3.97 3.495 7 4 C6.67 4.99 6.34 5.98 6 7 C5.01 7.33 4.02 7.66 3 8 C2.01 7.34 1.02 6.68 0 6 C-0.1875 2.875 -0.1875 2.875 0 0 Z " fill="#A8AF99" transform="translate(17,35)"/>
<path d="M0 0 C-1.32 0.33 -2.64 0.66 -4 1 C-4 1.66 -4 2.32 -4 3 C-3.01 3 -2.02 3 -1 3 C-0.67 4.98 -0.34 6.96 0 9 C-0.99 9.33 -1.98 9.66 -3 10 C-3.33 11.65 -3.66 13.3 -4 15 C-4.6875 13.375 -4.6875 13.375 -5 11 C-3.5625 7.75 -3.5625 7.75 -2 5 C-3.65 4.67 -5.3 4.34 -7 4 C-7 2.68 -7 1.36 -7 0 C-2.25 -1.125 -2.25 -1.125 0 0 Z " fill="#267E1F" transform="translate(35,60)"/>
<path d="M0 0 C4.29 0 8.58 0 13 0 C12.67 0.99 12.34 1.98 12 3 C7.38 3.66 2.76 4.32 -2 5 C-1.34 3.35 -0.68 1.7 0 0 Z " fill="#C6CAC2" transform="translate(37,0)"/>
<path d="M0 0 C2.475 0.99 2.475 0.99 5 2 C4.67 5.63 4.34 9.26 4 13 C3.67 13 3.34 13 3 13 C2.67 10.03 2.34 7.06 2 4 C1.71125 4.9075 1.4225 5.815 1.125 6.75 C0.23468224 9.32202908 -0.71494413 11.61346766 -2 14 C-2.21192221 8.80790596 -1.5912689 4.873261 0 0 Z " fill="#217F27" transform="translate(6,44)"/>
<path d="M0 0 C0.33 0.66 0.66 1.32 1 2 C3.02463255 2.65213292 3.02463255 2.65213292 5 3 C4.01 3.495 4.01 3.495 3 4 C2.52907686 7.20759429 2.52907686 7.20759429 2.375 10.9375 C2.30023438 12.20464844 2.22546875 13.47179688 2.1484375 14.77734375 C2.06830384 16.51708764 2 18.25841158 2 20 C1.34 20 0.68 20 0 20 C0 13.4 0 6.8 0 0 Z " fill="#9BC08A" transform="translate(3,40)"/>
<path d="M0 0 C1.32 0.66 2.64 1.32 4 2 C4 2.99 4 3.98 4 5 C5.31337396 6.0260734 6.64664105 7.02727325 8 8 C8 8.66 8 9.32 8 10 C5.50638429 8.79618552 3.31856917 7.54571278 1 6 C1 6.66 1 7.32 1 8 C-0.96147874 9.38938077 -2.96166576 10.7260411 -5 12 C-3.99939416 9.76787927 -3.22320243 8.19744831 -1.375 6.5625 C0.27248244 5.00897656 0.27248244 5.00897656 0.1875 2.3125 C0.125625 1.549375 0.06375 0.78625 0 0 Z " fill="#ADB4A4" transform="translate(19,21)"/>
<path d="M0 0 C0.66 0.33 1.32 0.66 2 1 C1.01 2.485 1.01 2.485 0 4 C0.99 4.33 1.98 4.66 3 5 C1.02 5.99 1.02 5.99 -1 7 C-1 6.34 -1 5.68 -1 5 C-1.66 5 -2.32 5 -3 5 C-2.67 6.98 -2.34 8.96 -2 11 C-3.32 10.67 -4.64 10.34 -6 10 C-6 6 -6 6 -4.6875 4.39453125 C-4.130625 3.87246094 -3.57375 3.35039062 -3 2.8125 C-2.443125 2.28269531 -1.88625 1.75289062 -1.3125 1.20703125 C-0.6628125 0.60955078 -0.6628125 0.60955078 0 0 Z " fill="#A3AF9E" transform="translate(19,13)"/>
<path d="M0 0 C0.33 0 0.66 0 1 0 C0.38857603 7.45937249 0.38857603 7.45937249 -1.4375 10 C-3 11 -3 11 -5 11 C-4.67 8.69 -4.34 6.38 -4 4 C-3.01 3.67 -2.02 3.34 -1 3 C-0.67 2.01 -0.34 1.02 0 0 Z " fill="#87AF8B" transform="translate(88,52)"/>
<path d="M0 0 C1.65 0 3.3 0 5 0 C5.93423645 3.01031744 6.04449911 3.86650268 5 7 C2.5625 6.1875 2.5625 6.1875 0 5 C-0.33 4.01 -0.66 3.02 -1 2 C-0.67 1.34 -0.34 0.68 0 0 Z " fill="#79A471" transform="translate(28,80)"/>
<path d="M0 0 C0.125 5.75 0.125 5.75 -1 8 C-2.65 7.67 -4.3 7.34 -6 7 C-6 6.01 -6 5.02 -6 4 C-1.54285714 0 -1.54285714 0 0 0 Z " fill="#CBCCC2" transform="translate(25,42)"/>
<path d="M0 0 C6.19518473 0.41588046 11.26689311 1.60251894 17 4 C15.4375 5.1875 15.4375 5.1875 13 6 C11.27758534 5.28503542 9.55659443 4.5606806 7.8828125 3.73828125 C4.93341321 2.58177406 2.11633408 2.80920404 -1 3 C-0.67 2.01 -0.34 1.02 0 0 Z " fill="#7CAA80" transform="translate(50,3)"/>
<path d="M0 0 C-0.33 1.32 -0.66 2.64 -1 4 C-3.99480917 4.8723412 -6.63575911 5.10829766 -9.75 5.0625 C-10.54921875 5.05347656 -11.3484375 5.04445313 -12.171875 5.03515625 C-12.77515625 5.02355469 -13.3784375 5.01195313 -14 5 C-11.81403638 2.81403638 -10.92654486 2.57768169 -8 1.9375 C-5.27549455 1.33149787 -2.73018549 0 0 0 Z " fill="#9BBF9E" transform="translate(68,83)"/>
<path d="M0 0 C1.45792884 -0.05399736 2.91642712 -0.09279177 4.375 -0.125 C5.18710937 -0.14820313 5.99921875 -0.17140625 6.8359375 -0.1953125 C9 0 9 0 11 2 C11.99 3.485 11.99 3.485 13 5 C10.69 4.67 8.38 4.34 6 4 C6 3.34 6 2.68 6 2 C3.69 2 1.38 2 -1 2 C-0.67 1.34 -0.34 0.68 0 0 Z " fill="#3E8343" transform="translate(19,52)"/>
<path d="M0 0 C0.598125 0.20625 1.19625 0.4125 1.8125 0.625 C1.4825 2.275 1.1525 3.925 0.8125 5.625 C0.1525 5.625 -0.5075 5.625 -1.1875 5.625 C-1.1875 6.285 -1.1875 6.945 -1.1875 7.625 C-2.1775 7.625 -3.1675 7.625 -4.1875 7.625 C-3.8575 5.975 -3.5275 4.325 -3.1875 2.625 C-3.8475 2.295 -4.5075 1.965 -5.1875 1.625 C-2.1875 -0.375 -2.1875 -0.375 0 0 Z " fill="#3F9141" transform="translate(82.1875,36.375)"/>
<path d="M0 0 C0.99 0.33 1.98 0.66 3 1 C5.63804589 0.60602665 5.63804589 0.60602665 8 0 C8 0.66 8 1.32 8 2 C6.8553125 2.4021875 6.8553125 2.4021875 5.6875 2.8125 C3.12619116 3.94424112 1.80307062 4.91223401 0 7 C-0.66 6.67 -1.32 6.34 -2 6 C-1.125 1.125 -1.125 1.125 0 0 Z " fill="#C5C9C2" transform="translate(44,21)"/>
<path d="M0 0 C0 2.62113708 -0.31292445 4.50935112 -1 7 C-2.32 7 -3.64 7 -5 7 C-5.33 7.99 -5.66 8.98 -6 10 C-6.66 9.67 -7.32 9.34 -8 9 C-7.34 7.68 -6.68 6.36 -6 5 C-5.34 5 -4.68 5 -4 5 C-4.33 4.01 -4.66 3.02 -5 2 C-3.35 1.34 -1.7 0.68 0 0 Z " fill="#B5C0B1" transform="translate(14,20)"/>
<path d="M0 0 C0.33 0.99 0.66 1.98 1 3 C1.66 3 2.32 3 3 3 C3.33 4.65 3.66 6.3 4 8 C3.01 8.33 2.02 8.66 1 9 C0.67 9.66 0.34 10.32 0 11 C-1.37432457 7.18243176 -0.67975039 3.92744671 0 0 Z " fill="#C1C9B9" transform="translate(26,63)"/>
<path d="M0 0 C3.3 0 6.6 0 10 0 C10.33 2.97 10.66 5.94 11 9 C13.475 9.99 13.475 9.99 16 11 C16 11.33 16 11.66 16 12 C13.69 12 11.38 12 9 12 C9 8.37 9 4.74 9 1 C6.03 1 3.06 1 0 1 C0 0.67 0 0.34 0 0 Z " fill="#C8BD6B" transform="translate(43,29)"/>
<path d="M0 0 C1.32 0.33 2.64 0.66 4 1 C1.53846154 5.8 1.53846154 5.8 -1.1875 6.8125 C-1.785625 6.874375 -2.38375 6.93625 -3 7 C-3 5.68 -3 4.36 -3 3 C-2.34 3 -1.68 3 -1 3 C-0.67 2.01 -0.34 1.02 0 0 Z " fill="#B9CBBB" transform="translate(14,50)"/>
<path d="M0 0 C0.66 0 1.32 0 2 0 C1.51428134 4.37146792 0.16325079 6.0408299 -3 9 C-3 9.66 -3 10.32 -3 11 C-3.99 10.67 -4.98 10.34 -6 10 C-6.33 9.01 -6.66 8.02 -7 7 C-6.38125 6.9175 -5.7625 6.835 -5.125 6.75 C-2.83911206 6.19416524 -2.83911206 6.19416524 -1.8125 4.0625 C-1.544375 3.381875 -1.27625 2.70125 -1 2 C-0.67 1.34 -0.34 0.68 0 0 Z " fill="#106B17" transform="translate(80,27)"/>
<path d="M0 0 C3 3.75 3 3.75 3 6 C3.99 6.33 4.98 6.66 6 7 C5.05125 7.268125 4.1025 7.53625 3.125 7.8125 C-0.25267273 8.74986588 -0.25267273 8.74986588 -2 12 C-2.6875 10.25 -2.6875 10.25 -3 8 C-2.02727325 6.64664105 -1.0260734 5.31337396 0 4 C0 2.68 0 1.36 0 0 Z " fill="#A6BE9B" transform="translate(43,14)"/>
<path d="M0 0 C2.4375 0.8125 2.4375 0.8125 5 2 C5.33 2.99 5.66 3.98 6 5 C5.34 5 4.68 5 4 5 C4 5.66 4 6.32 4 7 C3.01 6.67 2.02 6.34 1 6 C-0.1875 3.4375 -0.1875 3.4375 -1 1 C-0.67 0.67 -0.34 0.34 0 0 Z " fill="#C3C9BA" transform="translate(29,19)"/>
<path d="M0 0 C0.66 0 1.32 0 2 0 C2.33 1.32 2.66 2.64 3 4 C4.32 4.33 5.64 4.66 7 5 C6.42655063 7.86724686 6.1385485 8.8614515 4 11 C3.67 9.35 3.34 7.7 3 6 C2.34 6 1.68 6 1 6 C0.67 4.02 0.34 2.04 0 0 Z " fill="#A2C28D" transform="translate(26,60)"/>
<path d="M0 0 C0.33 0.99 0.66 1.98 1 3 C1.99 2.67 2.98 2.34 4 2 C2.66511872 5.59391114 1.03977277 8.75490696 -1 12 C-1.66 11.34 -2.32 10.68 -3 10 C-1.68 8.35 -0.36 6.7 1 5 C0.34 5 -0.32 5 -1 5 C-1.33 4.01 -1.66 3.02 -2 2 C-1.34 1.34 -0.68 0.68 0 0 Z " fill="#518658" transform="translate(82,60)"/>
<path d="M0 0 C2.97 0 5.94 0 9 0 C5.89448334 3.10551666 4.10801767 3.81323934 0 5 C0 3.35 0 1.7 0 0 Z " fill="#38352F" transform="translate(0,0)"/>
<path d="M0 0 C0.33 0.66 0.66 1.32 1 2 C0.01 3.485 0.01 3.485 -1 5 C-1.66 5 -2.32 5 -3 5 C-3.33 5.99 -3.66 6.98 -4 8 C-5.875 9.25 -5.875 9.25 -8 10 C-8.99 9.67 -9.98 9.34 -11 9 C-10.37351562 8.51789063 -9.74703125 8.03578125 -9.1015625 7.5390625 C-7.87566406 6.59160156 -7.87566406 6.59160156 -6.625 5.625 C-5.81289062 4.99851562 -5.00078125 4.37203125 -4.1640625 3.7265625 C-1.95776805 2.03226506 -1.95776805 2.03226506 0 0 Z " fill="#A5C7A7" transform="translate(79,73)"/>
<path d="M0 0 C2.31 0 4.62 0 7 0 C7.6875 1.8125 7.6875 1.8125 8 4 C6.5625 5.75 6.5625 5.75 5 7 C5 6.01 5 5.02 5 4 C2.525 3.01 2.525 3.01 0 2 C0 1.34 0 0.68 0 0 Z " fill="#B8BDAB" transform="translate(18,36)"/>
<path d="M0 0 C0 1.32 0 2.64 0 4 C-2.97 4 -5.94 4 -9 4 C-9 3.34 -9 2.68 -9 2 C-2.25 0 -2.25 0 0 0 Z " fill="#C6CABE" transform="translate(37,35)"/>
<path d="M0 0 C-0.66 1.32 -1.32 2.64 -2 4 C-4.97 3.505 -4.97 3.505 -8 3 C-7.67 2.01 -7.34 1.02 -7 0 C-4.3333581 -1.33332095 -2.83319697 -0.67102033 0 0 Z " fill="#C5CCBD" transform="translate(33,12)"/>
<path d="M0 0 C1.32 0.66 2.64 1.32 4 2 C2.38405168 4.04119788 0.7143618 6.04072937 -1 8 C-1.66 8 -2.32 8 -3 8 C-1.125 1.125 -1.125 1.125 0 0 Z " fill="#67A66F" transform="translate(80,63)"/>
<path d="M0 0 C0.66 0 1.32 0 2 0 C2.36717663 7.4659249 2.36717663 7.4659249 0.625 10 C-1 11 -1 11 -3 11 C-2.690625 10.29875 -2.38125 9.5975 -2.0625 8.875 C-0.96697322 5.91063343 -0.43577008 3.12301892 0 0 Z " fill="#21702B" transform="translate(88,44)"/>
<path d="M0 0 C1.32 0.66 2.64 1.32 4 2 C4 2.66 4 3.32 4 4 C1.18230651 6.17364926 -0.2190681 7.08677021 -3.8125 6.6875 C-4.534375 6.460625 -5.25625 6.23375 -6 6 C-5.67 5.34 -5.34 4.68 -5 4 C-4.01 4.33 -3.02 4.66 -2 5 C-2 4.34 -2 3.68 -2 3 C-1.34 3 -0.68 3 0 3 C0 2.01 0 1.02 0 0 Z " fill="#177518" transform="translate(83,39)"/>
<path d="M0 0 C0.66 0.33 1.32 0.66 2 1 C2 1.66 2 2.32 2 3 C4.475 3.99 4.475 3.99 7 5 C6.01 6.485 6.01 6.485 5 8 C3.125 7.875 3.125 7.875 1 7 C-0.25 3.9375 -0.25 3.9375 -1 1 C-0.67 0.67 -0.34 0.34 0 0 Z " fill="#58925A" transform="translate(6,60)"/>
<path d="M0 0 C9.59453303 1.74259681 9.59453303 1.74259681 13 5 C8.13103697 4.40380045 3.67209049 3.43023178 -1 2 C-0.67 1.34 -0.34 0.68 0 0 Z " fill="#61B060" transform="translate(62,29)"/>
<path d="M0 0 C1.48011371 0.30798326 2.95907325 0.621518 4.4375 0.9375 C5.26121094 1.11152344 6.08492187 1.28554687 6.93359375 1.46484375 C9 2 9 2 10 3 C10.33 3.99 10.66 4.98 11 6 C6.80639551 5.32902328 3.59665648 3.1441606 0 1 C0 0.67 0 0.34 0 0 Z " fill="#AFC3AA" transform="translate(17,69)"/>
<path d="M0 0 C0.66 0 1.32 0 2 0 C2 2.64 2 5.28 2 8 C1.34 8 0.68 8 0 8 C-0.66 6.02 -1.32 4.04 -2 2 C-1.34 1.34 -0.68 0.68 0 0 Z " fill="#277A29" transform="translate(20,56)"/>
<path d="M0 0 C2 1 2 1 2.8515625 3.06640625 C3.10679688 3.89011719 3.36203125 4.71382812 3.625 5.5625 C3.88539062 6.38878906 4.14578125 7.21507812 4.4140625 8.06640625 C4.60742188 8.70449219 4.80078125 9.34257813 5 10 C4.01 10.495 4.01 10.495 3 11 C2.30300448 9.54618103 1.61766134 8.08677047 0.9375 6.625 C0.55464844 5.81289063 0.17179688 5.00078125 -0.22265625 4.1640625 C-0.47917969 3.44992188 -0.73570313 2.73578125 -1 2 C-0.67 1.34 -0.34 0.68 0 0 Z " fill="#BBCDBE" transform="translate(9,39)"/>
<path d="M0 0 C0.66 0 1.32 0 2 0 C1.57576756 1.46224799 1.13509755 2.91973412 0.6875 4.375 C0.44386719 5.18710937 0.20023437 5.99921875 -0.05078125 6.8359375 C-1 9 -1 9 -4 11 C-4 10.01 -4 9.02 -4 8 C-3.34 8 -2.68 8 -2 8 C-1.855625 6.865625 -1.71125 5.73125 -1.5625 4.5625 C-1 1 -1 1 0 0 Z " fill="#0B680D" transform="translate(84,51)"/>
<path d="M0 0 C0.33 0.99 0.66 1.98 1 3 C0.34 3 -0.32 3 -1 3 C-0.67 4.32 -0.34 5.64 0 7 C1.32 7.33 2.64 7.66 4 8 C1.69 7.67 -0.62 7.34 -3 7 C-2.625 4.0625 -2.625 4.0625 -2 1 C-1.34 0.67 -0.68 0.34 0 0 Z " fill="#1A750F" transform="translate(36,80)"/>
<path d="M0 0 C0.66 0.66 1.32 1.32 2 2 C0.35 3.65 -1.3 5.3 -3 7 C-3.33 5.68 -3.66 4.36 -4 3 C-4.66 3 -5.32 3 -6 3 C-5.67 2.34 -5.34 1.68 -5 1 C-3.515 1.99 -3.515 1.99 -2 3 C-0.84188612 1.94729537 -0.84188612 1.94729537 0 0 Z " fill="#0D6D0E" transform="translate(77,48)"/>
<path d="M0 0 C0.33 0 0.66 0 1 0 C1 1.65 1 3.3 1 5 C2.98 5 4.96 5 7 5 C3.77208445 7.1519437 2.71599191 7.20086443 -1 7 C-0.67 4.69 -0.34 2.38 0 0 Z " fill="#317913" transform="translate(61,34)"/>
<path d="M0 0 C-0.33 1.32 -0.66 2.64 -1 4 C-2.98 4.33 -4.96 4.66 -7 5 C-7 4.34 -7 3.68 -7 3 C-2.61538462 0 -2.61538462 0 0 0 Z " fill="#C8C9BA" transform="translate(37,29)"/>
<path d="M0 0 C2.475 0.99 2.475 0.99 5 2 C4.67 2.99 4.34 3.98 4 5 C2.02 4.34 0.04 3.68 -2 3 C-1.34 2.01 -0.68 1.02 0 0 Z " fill="#C5CABC" transform="translate(23,15)"/>
<path d="M0 0 C-0.804375 0.28875 -1.60875 0.5775 -2.4375 0.875 C-5.1326468 1.73262568 -5.1326468 1.73262568 -6 4 C-7.32 3.67 -8.64 3.34 -10 3 C-6.81859267 -0.48439851 -4.56758339 -1.41752588 0 0 Z " fill="#A3AF9F" transform="translate(40,5)"/>
<path d="M0 0 C1.65 0.33 3.3 0.66 5 1 C2.60490662 3.89932357 0.68754757 4.50168276 -3 5 C-2.34 4.67 -1.68 4.34 -1 4 C-0.34786708 1.97536745 -0.34786708 1.97536745 0 0 Z " fill="#227D2C" transform="translate(62,81)"/>
<path d="M0 0 C3.79588866 0.54226981 5.47211993 2.20127563 8 5 C4.5625 4.1875 4.5625 4.1875 1 3 C0.67 2.01 0.34 1.02 0 0 Z " fill="#739874" transform="translate(18,66)"/>
<path d="M0 0 C0.66 0 1.32 0 2 0 C1.67 1.65 1.34 3.3 1 5 C0.34 5 -0.32 5 -1 5 C-1.33 6.65 -1.66 8.3 -2 10 C-2.6875 8.375 -2.6875 8.375 -3 6 C-1.5625 2.75 -1.5625 2.75 0 0 Z " fill="#2B8417" transform="translate(33,65)"/>
<path d="M0 0 C2.97 0.33 5.94 0.66 9 1 C8.67 1.66 8.34 2.32 8 3 C5.36 3 2.72 3 0 3 C0 2.01 0 1.02 0 0 Z " fill="#C2C6AC" transform="translate(24,48)"/>
<path d="M0 0 C2.475 0.99 2.475 0.99 5 2 C4.67 3.32 4.34 4.64 4 6 C0.125 4.25 0.125 4.25 -1 2 C-0.67 1.34 -0.34 0.68 0 0 Z " fill="#79B261" transform="translate(72,46)"/>
<path d="M0 0 C2 2 2 2 2 5 C0.02 4.34 -1.96 3.68 -4 3 C-4.33 3.66 -4.66 4.32 -5 5 C-4.67 3.68 -4.34 2.36 -4 1 C-2.125 0.375 -2.125 0.375 0 0 Z " fill="#7BAB7E" transform="translate(86,27)"/>
<path d="M0 0 C0.33 1.32 0.66 2.64 1 4 C-1.64 4 -4.28 4 -7 4 C-7 3.34 -7 2.68 -7 2 C-4.69 1.34 -2.38 0.68 0 0 Z " fill="#C9CBA4" transform="translate(51,25)"/>
<path d="M0 0 C6.75 0.875 6.75 0.875 9 2 C9 2.66 9 3.32 9 4 C4.545 3.01 4.545 3.01 0 2 C0 1.34 0 0.68 0 0 Z " fill="#B4C4B7" transform="translate(52,1)"/>
<path d="M0 0 C2.64 0.33 5.28 0.66 8 1 C7.67 1.66 7.34 2.32 7 3 C4.03 3 1.06 3 -2 3 C-1.34 2.67 -0.68 2.34 0 2 C0 1.34 0 0.68 0 0 Z " fill="#8CBB8F" transform="translate(30,57)"/>
<path d="M0 0 C2 2 2 2 2.125 5.125 C2.08375 6.07375 2.0425 7.0225 2 8 C1.01 7.67 0.02 7.34 -1 7 C-0.67 4.69 -0.34 2.38 0 0 Z " fill="#087E07" transform="translate(6,51)"/>
<path d="M0 0 C3.96 0 7.92 0 12 0 C12 0.99 12 1.98 12 3 C6.06 2.01 6.06 2.01 0 1 C0 0.67 0 0.34 0 0 Z " fill="#9CBA9D" transform="translate(20,51)"/>
<path d="M0 0 C2.62187494 1.04874998 3.79371361 1.64931313 5.25 4.125 C5.4975 4.74375 5.745 5.3625 6 6 C5.01 6 4.02 6 3 6 C0 2.66666667 0 2.66666667 0 0 Z " fill="#C2C8B9" transform="translate(20,27)"/>
<path d="M0 0 C0.33 0 0.66 0 1 0 C1 1.65 1 3.3 1 5 C-0.65 5.33 -2.3 5.66 -4 6 C-3.67 5.01 -3.34 4.02 -3 3 C-2.34 3 -1.68 3 -1 3 C-0.67 2.01 -0.34 1.02 0 0 Z " fill="#77AB7B" transform="translate(88,52)"/>
<path d="M0 0 C0.99 0 1.98 0 3 0 C3.33 1.98 3.66 3.96 4 6 C3.34 6 2.68 6 2 6 C0 3 0 3 0 0 Z " fill="#27712C" transform="translate(44,14)"/>
<path d="M0 0 C0 1.32 0 2.64 0 4 C-2.97 3.505 -2.97 3.505 -6 3 C-3.375 0 -3.375 0 0 0 Z " fill="#C0C6BA" transform="translate(47,7)"/>
<path d="M0 0 C1.98 0 3.96 0 6 0 C6 0.99 6 1.98 6 3 C3.69 2.67 1.38 2.34 -1 2 C-0.67 1.34 -0.34 0.68 0 0 Z " fill="#BECABA" transform="translate(35,6)"/>
</svg>
